<svg xmlns="http://www.w3.org/2000/svg" viewBox="0 0 24 24" fill="none"><path fill-rule="evenodd" clip-rule="evenodd" d="M7 6a5 5 0 1 1 10 0A5 5 0 0 1 7 6Zm5-3a3 3 0 1 0 0 6 3 3 0 0 0 0-6Z" fill="#003768" class="fill-000000"></path><path d="M4.062 21a8.001 8.001 0 0 1 13.745-4.502l.688.726 1.452-1.376-.688-.726A9.975 9.975 0 0 0 12 12C6.477 12 2 16.477 2 22v1h11.535v-2H4.062Z" fill="#003768" class="fill-000000"></path><path d="M23.414 18 18 23.414 14.586 20 16 18.586l2 2 4-4L23.414 18Z" fill="#003768" class="fill-000000"></path></svg>