<svg viewBox="0 0 128 128" xml:space="preserve" xmlns="http://www.w3.org/2000/svg" enable-background="new 0 0 128 128"><path d="M28.8 91.7c9.7 9.7 22.5 14.6 35.2 14.6s25.5-4.9 35.2-14.6L126.9 64 99.2 36.3c-19.4-19.4-51.1-19.4-70.5 0L1.1 64l27.7 27.7zm5.4-50c16.4-16.4 43.2-16.4 59.6 0L116.1 64 93.8 86.3c-16.4 16.4-43.2 16.4-59.6 0L11.9 64l22.3-22.3z" fill="#ffffff" class="fill-000000"></path><path d="M64 85c11.6 0 21-9.4 21-21s-9.4-21-21-21v8c7.2 0 13 5.8 13 13s-5.8 13-13 13-13-5.8-13-13h-8c0 11.6 9.4 21 21 21z" fill="#ffffff" class="fill-000000"></path></svg>