<svg viewBox="0 0 91 91" xml:space="preserve" xmlns="http://www.w3.org/2000/svg" enable-background="new 0 0 91 91"><path d="M67.3 41.3c0-11.7-9.5-21.2-21.2-21.2s-21.2 9.5-21.2 21.2c0 9.6 6.7 18.2 15.9 20.6l1.8 4.8c-5 .3-13.4 1.5-13.4 5.7 0 5.7 15.2 5.9 17 5.9s17-.2 17-5.9c0-4.3-8.5-5.4-13.5-5.7l1.7-4.7c9.2-2.4 15.9-11 15.9-20.7zm-14.3 0c0 3.8-3.1 6.9-6.9 6.9-3.8 0-6.9-3.1-6.9-6.9 0-3.8 3.1-6.9 6.9-6.9 3.8 0 6.9 3.1 6.9 6.9zm6.6 31.1c-1 1-5.9 2.5-13.5 2.5-7.5 0-12.4-1.5-13.5-2.5.9-.9 5-2.2 11.2-2.4l1.1 2.9c.2.5.6.8 1.2.8.5 0 1-.3 1.2-.8l1-2.9c6.3.2 10.3 1.5 11.3 2.4z" fill="#ffffff" class="fill-000000"></path></svg>