<svg viewBox="0 0 48 48" xml:space="preserve" xmlns="http://www.w3.org/2000/svg"><g fill="#7a0916" class="fill-241f20"><path d="m44.687 10.621-8.691 8.691.014.013-11.848 11.849-10.183-10.182-3.301 3.302 11.673 11.673-.012.011 1.79 1.79.011-.011.011.011.798-.798.008.008L39.31 22.625l8.69-8.69zM13.664 30.785 3.482 20.604.18 23.905l11.673 11.672-.012.012 1.791 1.79.011-.011.01.011.798-.798.008.007 2.522-2.522-3.299-3.298z"></path><path d="m24.053 26.995 4.759-4.759 8.69-8.691-3.313-3.313-8.69 8.691.014.014-4.76 4.758z"></path></g></svg>